Format: AVI
File size: 1.37 GiB
Duration: 1h 33mn
Overall bit rate : 2 103 Kbps
IMDb Rating: 5.6/10  
Genre: Drama | Thriller 
Release: 11 August 2010 
IMDb Link: http://www.imdb.com/title/tt1319704/
Trailer: http://www.youtube.com/watch?v=X8Wlb96gyXQ
Source:    Russian R5 DVD9   
Encoded By : HiTM4N
Format: MPEG-4 Visual
Format profile: Advanced Simple@L5
Format settings, BVOP: Yes
Format settings, QPel: No
Format settings, GMC : No warppoints
Muxing mode: Packed bitstream
Codec ID: XVID
Bit rate: 1 646 Kbps
Width : 720 pixels
Height: 400 pixels
Display aspect ratio: 16:9
Frame rate: 25.000 fps
Chroma subsampling: 4:2:0
Bit depth: 24 bits
Scan type: Progressive
Bits/(Pixel*Frame): 0.229
Stream size: 1.07 GiB 
Format: AC3
Bit rate mode: Constant
Bit rate: 448 Kbps
Channel(s): 6 channels
Sampling rate: 48.0 KHz
Stream size: 300 MiB